<?xml version="1.0" standalone="no"?>
<svg xmlns:xlink="http://www.w3.org/1999/xlink" id="wave" style="transform:rotate(180deg); transition: 0.3s" viewBox="0 0 1440 490" version="1.1" xmlns="http://www.w3.org/2000/svg"><defs><linearGradient id="sw-gradient-0" x1="0" x2="0" y1="1" y2="0"><stop stop-color="rgba(243, 106, 62, 1)" offset="0%"/><stop stop-color="rgba(255, 179, 11, 1)" offset="100%"/></linearGradient></defs><path style="transform:translate(0, 0px); opacity:1" fill="url(#sw-gradient-0)" d="M0,49L240,57.2C480,65,960,82,1440,122.5C1920,163,2400,229,2880,236.8C3360,245,3840,196,4320,220.5C4800,245,5280,343,5760,351.2C6240,359,6720,278,7200,228.7C7680,180,8160,163,8640,204.2C9120,245,9600,343,10080,318.5C10560,294,11040,147,11520,89.8C12000,33,12480,65,12960,81.7C13440,98,13920,98,14400,130.7C14880,163,15360,229,15840,269.5C16320,310,16800,327,17280,343C17760,359,18240,376,18720,375.7C19200,376,19680,359,20160,302.2C20640,245,21120,147,21600,89.8C22080,33,22560,16,23040,24.5C23520,33,24000,65,24480,130.7C24960,196,25440,294,25920,310.3C26400,327,26880,261,27360,212.3C27840,163,28320,131,28800,114.3C29280,98,29760,98,30240,81.7C30720,65,31200,33,31680,65.3C32160,98,32640,196,33120,220.5C33600,245,34080,196,34320,171.5L34560,147L34560,490L34320,490C34080,490,33600,490,33120,490C32640,490,32160,490,31680,490C31200,490,30720,490,30240,490C29760,490,29280,490,28800,490C28320,490,27840,490,27360,490C26880,490,26400,490,25920,490C25440,490,24960,490,24480,490C24000,490,23520,490,23040,490C22560,490,22080,490,21600,490C21120,490,20640,490,20160,490C19680,490,19200,490,18720,490C18240,490,17760,490,17280,490C16800,490,16320,490,15840,490C15360,490,14880,490,14400,490C13920,490,13440,490,12960,490C12480,490,12000,490,11520,490C11040,490,10560,490,10080,490C9600,490,9120,490,8640,490C8160,490,7680,490,7200,490C6720,490,6240,490,5760,490C5280,490,4800,490,4320,490C3840,490,3360,490,2880,490C2400,490,1920,490,1440,490C960,490,480,490,240,490L0,490Z"/></svg>